<mxfile host="app.diagrams.net" modified="2023-05-21T05:37:18.173Z" agent="5.0 (X11; Ubuntu)" etag="Q4sag9ZYpWD9UIDKfpwQ" version="21.0.6" type="github">
  <diagram id="prtHgNgQTEPvFCAcTncT" name="Page-1">
    <mxGraphModel dx="948" dy="1737" grid="1" gridSize="10" guides="1" tooltips="1" connect="1" arrows="1" fold="1" page="1" pageScale="1" pageWidth="827" pageHeight="1169" math="0" shadow="0">
      <root>
        <mxCell id="0" />
        <mxCell id="1" parent="0" />
        <mxCell id="uwlFhRMN0LRJSvAi3oSE-1" value="" style="rounded=0;whiteSpace=wrap;html=1;fontSize=22;" parent="1" vertex="1">
          <mxGeometry x="200" y="-10" width="581" height="320" as="geometry" />
        </mxCell>
        <mxCell id="OS7716eK1eEhAZ1Tvy0E-2" value="&lt;font style=&quot;font-size: 22px;&quot;&gt;syscall&lt;/font&gt;" style="rounded=0;whiteSpace=wrap;html=1;" parent="1" vertex="1">
          <mxGeometry x="405" y="190" width="220" height="30" as="geometry" />
        </mxCell>
        <mxCell id="OS7716eK1eEhAZ1Tvy0E-3" value="&lt;font style=&quot;font-size: 22px;&quot;&gt;kernel-context&lt;/font&gt;" style="rounded=0;whiteSpace=wrap;html=1;" parent="1" vertex="1">
          <mxGeometry x="405" y="120" width="210" height="30" as="geometry" />
        </mxCell>
        <mxCell id="ZmV7ZYSOXu3V1vY0SGHK-20" style="edgeStyle=orthogonalEdgeStyle;rounded=0;orthogonalLoop=1;jettySize=auto;html=1;entryX=1;entryY=0.5;entryDx=0;entryDy=0;" edge="1" parent="1" source="OS7716eK1eEhAZ1Tvy0E-4" target="ZmV7ZYSOXu3V1vY0SGHK-2">
          <mxGeometry relative="1" as="geometry" />
        </mxCell>
        <mxCell id="ZmV7ZYSOXu3V1vY0SGHK-21" value="查找" style="edgeLabel;html=1;align=center;verticalAlign=middle;resizable=0;points=[];" vertex="1" connectable="0" parent="ZmV7ZYSOXu3V1vY0SGHK-20">
          <mxGeometry x="0.2971" y="-1" relative="1" as="geometry">
            <mxPoint as="offset" />
          </mxGeometry>
        </mxCell>
        <mxCell id="OS7716eK1eEhAZ1Tvy0E-4" value="&lt;font style=&quot;font-size: 22px;&quot;&gt;linker&lt;/font&gt;" style="rounded=0;whiteSpace=wrap;html=1;" parent="1" vertex="1">
          <mxGeometry x="220" y="135" width="120" height="30" as="geometry" />
        </mxCell>
        <mxCell id="OS7716eK1eEhAZ1Tvy0E-5" value="&lt;font style=&quot;font-size: 22px;&quot;&gt;SBI-request&lt;/font&gt;" style="rounded=0;whiteSpace=wrap;html=1;" parent="1" vertex="1">
          <mxGeometry x="405" y="250" width="220" height="30" as="geometry" />
        </mxCell>
        <mxCell id="OS7716eK1eEhAZ1Tvy0E-24" value="" style="rounded=0;whiteSpace=wrap;html=1;" parent="1" vertex="1">
          <mxGeometry x="200" y="-10" width="581" height="90" as="geometry" />
        </mxCell>
        <mxCell id="ZmV7ZYSOXu3V1vY0SGHK-12" value="" style="edgeStyle=orthogonalEdgeStyle;rounded=0;orthogonalLoop=1;jettySize=auto;html=1;" edge="1" parent="1" source="OS7716eK1eEhAZ1Tvy0E-1" target="ZmV7ZYSOXu3V1vY0SGHK-10">
          <mxGeometry relative="1" as="geometry" />
        </mxCell>
        <mxCell id="ZmV7ZYSOXu3V1vY0SGHK-13" value="函数调用" style="edgeLabel;html=1;align=center;verticalAlign=middle;resizable=0;points=[];" vertex="1" connectable="0" parent="ZmV7ZYSOXu3V1vY0SGHK-12">
          <mxGeometry x="-0.2444" y="-1" relative="1" as="geometry">
            <mxPoint as="offset" />
          </mxGeometry>
        </mxCell>
        <mxCell id="OS7716eK1eEhAZ1Tvy0E-1" value="&lt;font style=&quot;font-size: 22px;&quot;&gt;app&lt;/font&gt;" style="rounded=0;whiteSpace=wrap;html=1;" parent="1" vertex="1">
          <mxGeometry x="300" y="10" width="130" height="20" as="geometry" />
        </mxCell>
        <mxCell id="OS7716eK1eEhAZ1Tvy0E-25" value="" style="rounded=0;whiteSpace=wrap;html=1;" parent="1" vertex="1">
          <mxGeometry x="200" y="310" width="580" height="70" as="geometry" />
        </mxCell>
        <mxCell id="OS7716eK1eEhAZ1Tvy0E-26" value="&lt;font style=&quot;font-size: 22px;&quot;&gt;SBI-server&lt;/font&gt;" style="rounded=0;whiteSpace=wrap;html=1;" parent="1" vertex="1">
          <mxGeometry x="455" y="320" width="120" height="40" as="geometry" />
        </mxCell>
        <mxCell id="OS7716eK1eEhAZ1Tvy0E-28" value="&lt;font style=&quot;font-size: 22px;&quot;&gt;U-Mode&lt;/font&gt;" style="rounded=0;whiteSpace=wrap;html=1;" parent="1" vertex="1">
          <mxGeometry x="640" y="-10" width="141" height="90" as="geometry" />
        </mxCell>
        <mxCell id="OS7716eK1eEhAZ1Tvy0E-29" value="&lt;font style=&quot;font-size: 22px;&quot;&gt;S-Mode&lt;/font&gt;" style="rounded=0;whiteSpace=wrap;html=1;" parent="1" vertex="1">
          <mxGeometry x="640" y="80" width="140" height="230" as="geometry" />
        </mxCell>
        <mxCell id="OS7716eK1eEhAZ1Tvy0E-30" value="&lt;font style=&quot;font-size: 22px;&quot;&gt;M-Mode&lt;/font&gt;" style="rounded=0;whiteSpace=wrap;html=1;" parent="1" vertex="1">
          <mxGeometry x="640" y="310" width="141" height="70" as="geometry" />
        </mxCell>
        <mxCell id="OS7716eK1eEhAZ1Tvy0E-31" value="&lt;font style=&quot;font-size: 22px;&quot;&gt;console&lt;/font&gt;" style="rounded=0;whiteSpace=wrap;html=1;" parent="1" vertex="1">
          <mxGeometry x="210" y="220" width="160" height="40" as="geometry" />
        </mxCell>
        <mxCell id="ZmV7ZYSOXu3V1vY0SGHK-1" value="&lt;font style=&quot;font-size: 22px;&quot;&gt;OS&lt;/font&gt;" style="rounded=0;whiteSpace=wrap;html=1;" vertex="1" parent="1">
          <mxGeometry x="651" y="220" width="120" height="60" as="geometry" />
        </mxCell>
        <mxCell id="ZmV7ZYSOXu3V1vY0SGHK-2" value="&lt;font style=&quot;font-size: 22px;&quot;&gt;app&lt;/font&gt;" style="rounded=0;whiteSpace=wrap;html=1;" vertex="1" parent="1">
          <mxGeometry x="50" y="120" width="120" height="60" as="geometry" />
        </mxCell>
        <mxCell id="ZmV7ZYSOXu3V1vY0SGHK-3" value="" style="rounded=0;whiteSpace=wrap;html=1;" vertex="1" parent="1">
          <mxGeometry x="50" y="180" width="120" height="60" as="geometry" />
        </mxCell>
        <mxCell id="ZmV7ZYSOXu3V1vY0SGHK-4" value="&lt;font style=&quot;font-size: 22px;&quot;&gt;os&lt;/font&gt;" style="rounded=0;whiteSpace=wrap;html=1;" vertex="1" parent="1">
          <mxGeometry x="50" y="240" width="120" height="60" as="geometry" />
        </mxCell>
        <mxCell id="ZmV7ZYSOXu3V1vY0SGHK-14" value="" style="edgeStyle=orthogonalEdgeStyle;rounded=0;orthogonalLoop=1;jettySize=auto;html=1;" edge="1" parent="1" source="ZmV7ZYSOXu3V1vY0SGHK-10" target="OS7716eK1eEhAZ1Tvy0E-3">
          <mxGeometry relative="1" as="geometry" />
        </mxCell>
        <mxCell id="ZmV7ZYSOXu3V1vY0SGHK-15" value="系统调用" style="edgeLabel;html=1;align=center;verticalAlign=middle;resizable=0;points=[];" vertex="1" connectable="0" parent="ZmV7ZYSOXu3V1vY0SGHK-14">
          <mxGeometry x="-0.5111" y="1" relative="1" as="geometry">
            <mxPoint as="offset" />
          </mxGeometry>
        </mxCell>
        <mxCell id="ZmV7ZYSOXu3V1vY0SGHK-10" value="&lt;font style=&quot;font-size: 22px;&quot;&gt;lib&lt;/font&gt;" style="rounded=0;whiteSpace=wrap;html=1;" vertex="1" parent="1">
          <mxGeometry x="490" y="30" width="120" height="40" as="geometry" />
        </mxCell>
        <mxCell id="ZmV7ZYSOXu3V1vY0SGHK-17" value="" style="edgeStyle=orthogonalEdgeStyle;rounded=0;orthogonalLoop=1;jettySize=auto;html=1;" edge="1" parent="1" source="OS7716eK1eEhAZ1Tvy0E-4" target="OS7716eK1eEhAZ1Tvy0E-1">
          <mxGeometry relative="1" as="geometry" />
        </mxCell>
        <mxCell id="ZmV7ZYSOXu3V1vY0SGHK-18" value="加载运行" style="edgeLabel;html=1;align=center;verticalAlign=middle;resizable=0;points=[];" vertex="1" connectable="0" parent="ZmV7ZYSOXu3V1vY0SGHK-17">
          <mxGeometry x="0.1" y="-4" relative="1" as="geometry">
            <mxPoint y="1" as="offset" />
          </mxGeometry>
        </mxCell>
        <mxCell id="ZmV7ZYSOXu3V1vY0SGHK-23" value="" style="endArrow=none;dashed=1;html=1;rounded=0;" edge="1" parent="1">
          <mxGeometry width="50" height="50" relative="1" as="geometry">
            <mxPoint x="300" y="20" as="sourcePoint" />
            <mxPoint x="110" y="120" as="targetPoint" />
          </mxGeometry>
        </mxCell>
      </root>
    </mxGraphModel>
  </diagram>
</mxfile>
